<svg width="20" height="25" viewBox="0 0 20 25" fill="none" xmlns="http://www.w3.org/2000/svg">
<path d="M9.72222 11.1111C10.821 11.1111 11.8951 10.7853 12.8087 10.1748C13.7223 9.56438 14.4344 8.69672 14.8549 7.68158C15.2754 6.66643 15.3854 5.54939 15.171 4.47172C14.9567 3.39405 14.4276 2.40414 13.6506 1.62719C12.8736 0.850228 11.8837 0.321113 10.8061 0.106751C9.72838 -0.107611 8.61135 0.00240712 7.5962 0.422894C6.58106 0.843381 5.7134 1.55545 5.10295 2.46906C4.49249 3.38266 4.16667 4.45677 4.16667 5.55556C4.16667 7.02898 4.75198 8.44206 5.79385 9.48393C6.83572 10.5258 8.2488 11.1111 9.72222 11.1111ZM18.0556 25C18.4239 25 18.7772 24.8537 19.0376 24.5932C19.2981 24.3327 19.4444 23.9795 19.4444 23.6111C19.4444 21.0326 18.4201 18.5597 16.5969 16.7365C14.7736 14.9132 12.3007 13.8889 9.72222 13.8889C7.14373 13.8889 4.67084 14.9132 2.84757 16.7365C1.0243 18.5597 3.84225e-08 21.0326 0 23.6111C0 23.9795 0.146329 24.3327 0.406796 24.5932C0.667263 24.8537 1.02053 25 1.38889 25" fill="black"/>
</svg>
