<svg width="23" height="25" viewBox="0 0 23 25" fill="none" xmlns="http://www.w3.org/2000/svg">
<path d="M12.8168 0.5252C12.4609 0.187925 11.9897 0 11.5 0C11.0103 0 10.5391 0.187925 10.1833 0.5252L0.898918 9.32137C0.614641 9.59105 0.388282 9.91607 0.233712 10.2765C0.0791412 10.637 -0.000386346 11.0253 1.41115e-06 11.4176V22.1198C0.000509521 22.8839 0.303635 23.6164 0.842747 24.1565C1.38186 24.6966 2.11284 25 2.875 25H5.75C6.5125 25 7.24377 24.6964 7.78293 24.1559C8.3221 23.6154 8.625 22.8823 8.625 22.1179V17.3144C8.625 17.0596 8.72597 16.8152 8.90569 16.6351C9.08541 16.4549 9.32917 16.3537 9.58333 16.3537H13.4167C13.6708 16.3537 13.9146 16.4549 14.0943 16.6351C14.274 16.8152 14.375 17.0596 14.375 17.3144V22.1179C14.375 22.8823 14.6779 23.6154 15.2171 24.1559C15.7562 24.6964 16.4875 25 17.25 25H20.125C20.8875 25 21.6188 24.6964 22.1579 24.1559C22.6971 23.6154 23 22.8823 23 22.1179V11.4157C22.9999 11.0235 22.9199 10.6355 22.765 10.2754C22.6101 9.91529 22.3836 9.59066 22.0992 9.32137L12.8168 0.521358V0.5252Z" fill="black"/>
</svg>
