<svg width="25" height="25" viewBox="0 0 25 25" fill="none" xmlns="http://www.w3.org/2000/svg">
<path d="M24.0269 7.65627C23.3996 6.1622 22.4869 4.8042 21.3399 3.65795C20.1962 2.5097 18.8377 1.59678 17.3415 0.971007C15.8087 0.326843 14.1618 -0.00335477 12.4987 2.56956e-05H12.4428C10.7511 0.00839622 9.11544 0.343217 7.57481 1.0017C6.09141 1.63388 4.74566 2.54843 3.61277 3.69422C2.47681 4.83789 1.57464 6.19115 0.956504 7.67859C0.314848 9.22536 -0.010282 10.8846 0.00024782 12.5586C0.00863604 14.495 0.472784 16.4174 1.33957 18.1362V22.3772C1.33957 23.0859 1.91556 23.6607 2.62296 23.6607H6.8674C8.59782 24.532 10.5074 24.9905 12.4456 25H12.5043C14.1763 25 15.7953 24.6763 17.3219 24.043C18.8106 23.4247 20.164 22.5224 21.3063 21.3867C22.4583 20.2455 23.3642 18.9118 23.9989 17.4247C24.656 15.8845 24.9915 14.2467 24.9999 12.5558C25.0055 10.8566 24.6756 9.20761 24.0269 7.65627ZM6.91773 13.8393C6.17957 13.8393 5.57841 13.2394 5.57841 12.5C5.57841 11.7606 6.17957 11.1607 6.91773 11.1607C7.65589 11.1607 8.25705 11.7606 8.25705 12.5C8.25705 13.2394 7.65869 13.8393 6.91773 13.8393ZM12.4987 13.8393C11.7605 13.8393 11.1594 13.2394 11.1594 12.5C11.1594 11.7606 11.7605 11.1607 12.4987 11.1607C13.2369 11.1607 13.838 11.7606 13.838 12.5C13.838 13.2394 13.2369 13.8393 12.4987 13.8393ZM18.0797 13.8393C17.3415 13.8393 16.7403 13.2394 16.7403 12.5C16.7403 11.7606 17.3415 11.1607 18.0797 11.1607C18.8178 11.1607 19.419 11.7606 19.419 12.5C19.419 13.2394 18.8178 13.8393 18.0797 13.8393Z" fill="black"/>
</svg>
